<svg id="loading" xmlns="http://www.w3.org/2000/svg" viewBox="0 0 419.27 419.13"><title>loading</title><g id="loadingCircle"><path d="M46.19-66.24a4.21,4.21,0,0,0-3.72.36c-2.77,1.75-3.17,5.19-1.36,8,1.94,3.06,5.21,4.17,8,2.42A4.39,4.39,0,0,0,51-59.06l2.93.25a6.89,6.89,0,0,1-3.39,5.72c-4.14,2.62-9,1.48-11.83-3S36.85-65.56,41-68.18a6.73,6.73,0,0,1,6.14-.7Z" transform="translate(57.73 99.35)"/><path d="M48.63-72.32l2.51-1.32,3.14,6,6.58-3.45-3.15-6,2.51-1.31,7.89,15L65.61-62l-3.48-6.63-6.58,3.46L59-58.6l-2.5,1.32Z" transform="translate(57.73 99.35)"/><path d="M68.9-82.28l2.25-1,12.94,13-3,1.26-2.88-3-6.34,2.69.2,4.14-2.92,1.23ZM76.31-74l-5-5.41.41,7.33Z" transform="translate(57.73 99.35)"/><path d="M79.9-86.71l5.23-1.76c2.89-1,6-.89,7.16,2.73a4.27,4.27,0,0,1-2,5.54l6.4,5.78-3.24,1.08L87.65-79l-2,.66L88-71.51l-2.68.9Zm7,5.22c1.51-.51,3.23-1.24,2.53-3.33-.64-1.91-2.38-1.58-3.76-1.12l-2.32.78,1.47,4.37Z" transform="translate(57.73 99.35)"/><path d="M111.61-79.52a13,13,0,0,1-6,3.22c-4.75,1.19-9-1.41-10.28-6.56s1.22-9.58,6-10.76a8.64,8.64,0,0,1,6.59.56l-1.48,2.69A5.77,5.77,0,0,0,102-91c-3.18.79-4.64,3.93-3.83,7.21.88,3.52,3.64,5.6,6.82,4.8a7.16,7.16,0,0,0,3.4-1.76l-1-3.89-3.16.79-.66-2.65,5.9-1.48Z" transform="translate(57.73 99.35)"/><path d="M111.89-95.55l10.38-1.73.45,2.7-7.59,1.26.69,4.12L123-90.4l.45,2.7-7.19,1.2L117-82l8-1.33.45,2.7-10.78,1.8Z" transform="translate(57.73 99.35)"/><path d="M126.38-97.93l4.29-.34,5.17,11.53,3.33-12.2,4.25-.34,1.34,16.94-2.68.21L141-96.19h-.05l-3.7,14.45-2,.15-5.92-13.68h0L130.4-81.2l-2.68.21Z" transform="translate(57.73 99.35)"/><path d="M147.93-99.35l10.52.17,0,2.74-7.7-.13-.07,4.18,7.29.12,0,2.74-7.29-.12L150.52-85l8.1.13-.05,2.73-10.92-.18Z" transform="translate(57.73 99.35)"/><path d="M162.33-99.12l3.73.32,6.61,13.22h.05l1.06-12.58,2.81.24L175.17-81l-3.58-.3-6.73-13.64h0l-1.1,13-2.82-.24Z" transform="translate(57.73 99.35)"/><path d="M183.66-94.08l-4.81-.78.44-2.7,12.41,2-.44,2.7-4.81-.78-2.28,14.08L181.38-80Z" transform="translate(57.73 99.35)"/><path d="M200.42-85.19a1.81,1.81,0,0,1,1.3,2.2,1.85,1.85,0,0,1-2.19,1.39,1.84,1.84,0,0,1-1.31-2.21A1.84,1.84,0,0,1,200.42-85.19Z" transform="translate(57.73 99.35)"/><path d="M223.61-82.4A4.21,4.21,0,0,0,221-85.08c-3.1-1.08-6,.75-7.14,4-1.19,3.42,0,6.67,3.09,7.75a4.41,4.41,0,0,0,4.05-.79l1.62,2.44a6.83,6.83,0,0,1-6.58.92c-4.63-1.6-6.78-6.1-5-11.11s6.25-7.36,10.87-5.76a6.73,6.73,0,0,1,4.38,4.36Z" transform="translate(57.73 99.35)"/><path d="M229.86-84.3l2.59,1.13L229.73-77l6.8,3,2.72-6.2L241.84-79,235-63.49l-2.59-1.13,3-6.86-6.8-3-3,6.85L223-68.75Z" transform="translate(57.73 99.35)"/><path d="M250.3-74.65l2.15,1.17-2.07,18.2-2.84-1.54.55-4.12L242-64.23l-3.11,2.74L236.13-63Zm-1.85,11,1.14-7.25L244.11-66Z" transform="translate(57.73 99.35)"/><path d="M260.59-68.84l4.64,3c2.57,1.66,4.41,4.1,2.34,7.31A4.27,4.27,0,0,1,262-56.66l-.52,8.6-2.87-1.85L259.4-58l-1.73-1.12-3.91,6-2.37-1.53Zm.33,8.78c1.34.86,3,1.75,4.18-.11,1.09-1.69-.25-2.84-1.48-3.63l-2.05-1.33-2.5,3.87Z" transform="translate(57.73 99.35)"/><path d="M274.78-39.56a13,13,0,0,1-6.24-2.66c-3.89-3-4.52-7.91-1.3-12.12s8.24-5,12.13-2.07a8.7,8.7,0,0,1,3.68,5.5l-3,.53a5.77,5.77,0,0,0-2.3-3.84c-2.6-2-6-1.17-8,1.52-2.2,2.88-2.1,6.34.5,8.32a7.3,7.3,0,0,0,3.5,1.56L276.14-46l-2.58-2,1.66-2.18,4.83,3.69Z" transform="translate(57.73 99.35)"/><path d="M287.49-49.36l7.84,7-1.82,2-5.74-5.13L285-42.33l5.43,4.86-1.82,2-5.44-4.86-3.07,3.43,6,5.4-1.82,2-8.14-7.28Z" transform="translate(57.73 99.35)"/><path d="M298.38-39.56l2.95,3.14-5.75,11.25,11.6-5,2.92,3.1L297.73-15.46l-1.84-2,10.27-9.67,0,0L292.55-21l-1.36-1.44,7-13.18,0,0-10.27,9.67-1.85-2Z" transform="translate(57.73 99.35)"/><path d="M312.94-23.6l6.52,8.26-2.14,1.69-4.78-6-3.27,2.59,4.52,5.73-2.15,1.7-4.52-5.73-3.61,2.86,5,6.36-2.15,1.7-6.77-8.58Z" transform="translate(57.73 99.35)"/><path d="M321.86-12.17,324-9,317.74,4.37l0,0,10.49-7,1.57,2.35L315.7,9.18l-2-3,6.46-13.78,0,0L309.31-.36l-1.57-2.35Z" transform="translate(57.73 99.35)"/><path d="M331.23,7.65l-2.39-4.24,2.38-1.34L337.39,13,335,14.35l-2.39-4.24-12.42,7-1.39-2.46Z" transform="translate(57.73 99.35)"/><path d="M334.76,26.31a1.82,1.82,0,0,1-.91,2.4,1.85,1.85,0,0,1-2.45-.86,1.85,1.85,0,0,1,3.36-1.54Z" transform="translate(57.73 99.35)"/><path d="M347.05,46.15a4.24,4.24,0,0,0,.47-3.72c-1.1-3.08-4.36-4.24-7.55-3.11-3.41,1.22-5.22,4.17-4.12,7.25A4.41,4.41,0,0,0,339,49.25l-.9,2.79a6.87,6.87,0,0,1-4.83-4.57c-1.63-4.61.54-9.1,5.54-10.87s9.65.29,11.29,4.9a6.73,6.73,0,0,1-.67,6.14Z" transform="translate(57.73 99.35)"/><path d="M352.44,49.85l.72,2.73-6.54,1.74,1.91,7.18,6.54-1.75.73,2.74-16.42,4.37-.73-2.73,7.24-1.93L344,55,336.74,57,336,54.22Z" transform="translate(57.73 99.35)"/><path d="M357.65,71.84l.43,2.41L342.56,84,342,80.8l3.56-2.15-1.21-6.78-4.08-.73L339.71,68Zm-9.72,5.39,6.37-3.63-7.24-1.24Z" transform="translate(57.73 99.35)"/><path d="M359.54,83.52,360.1,89c.31,3-.45,6-4.25,6.38a4.28,4.28,0,0,1-5-3.19l-7,5-.35-3.4,6.79-4.39-.21-2.05-7.16.73-.29-2.82Zm-6.66,5.73c.17,1.58.5,3.42,2.7,3.19,2-.2,2.06-2,1.92-3.42l-.25-2.43-4.59.47Z" transform="translate(57.73 99.35)"/><path d="M345.52,112.86a13,13,0,0,1-1.83-6.54c-.11-4.89,3.36-8.47,8.66-8.59s9.08,3.3,9.19,8.18a8.67,8.67,0,0,1-2,6.31l-2.3-2A5.8,5.8,0,0,0,358.8,106c-.07-3.27-2.81-5.39-6.19-5.31-3.62.08-6.26,2.32-6.19,5.59a7.24,7.24,0,0,0,1,3.71l4-.1-.07-3.25,2.73-.06.14,6.08Z" transform="translate(57.73 99.35)"/><path d="M361.12,116.64l-.57,10.51-2.73-.15.42-7.68-4.18-.23-.39,7.28-2.74-.15.4-7.27-4.6-.25-.44,8.08-2.73-.15.59-10.9Z" transform="translate(57.73 99.35)"/><path d="M360.28,131.29l-.61,4.26-12.37,2.54,11.18,5.9-.6,4.23-16.82-2.38.38-2.67,14,2v-.05l-13.3-6.75.28-1.95L357,133.59v0l-14-2,.38-2.67Z" transform="translate(57.73 99.35)"/><path d="M356.91,152.64l-2.37,10.25-2.66-.61,1.73-7.5-4.07-.94L347.9,161l-2.66-.62,1.64-7.11-4.49-1-1.82,7.89-2.67-.62,2.46-10.64Z" transform="translate(57.73 99.35)"/><path d="M353.55,166.77l-1.13,3.57-14.36,3.52,0,0,12,3.81-.86,2.69L333,175.28l1.08-3.42,14.8-3.55v0l-12.42-3.94.86-2.7Z" transform="translate(57.73 99.35)"/><path d="M343.91,186.45l1.83-4.51,2.54,1-4.72,11.64-2.54-1,1.83-4.52-13.22-5.34,1.07-2.62Z" transform="translate(57.73 99.35)"/><path d="M331.52,200.84a1.81,1.81,0,0,1-2.44.78,1.8,1.8,0,1,1,2.44-.78Z" transform="translate(57.73 99.35)"/><path d="M323.67,222.81a4.22,4.22,0,0,0,3.2-1.95c1.73-2.78.59-6.05-2.28-7.84-3.08-1.91-6.51-1.48-8.24,1.3a4.39,4.39,0,0,0-.14,4.12l-2.74,1a6.87,6.87,0,0,1,.57-6.63c2.58-4.15,7.45-5.25,11.95-2.44s5.8,7.72,3.21,11.88a6.7,6.7,0,0,1-5.22,3.3Z" transform="translate(57.73 99.35)"/><path d="M324.13,229.33l-1.67,2.27-5.45-4-4.41,6,5.44,4-1.68,2.27-13.67-10.1,1.68-2.27,6,4.45,4.41-6-6-4.45,1.68-2.27Z" transform="translate(57.73 99.35)"/><path d="M310.21,247.13,308.6,249l-17.29-6,2.12-2.43,3.91,1.44,4.53-5.18-2-3.64,2.08-2.38Zm-10.27-4.21,6.81,2.7-3.56-6.42Z" transform="translate(57.73 99.35)"/><path d="M302.26,255.91l-3.93,3.88c-2.18,2.13-5,3.39-7.64.67a4.26,4.26,0,0,1-.61-5.86l-8.27-2.41,2.43-2.39,7.67,2.56,1.48-1.45-5.05-5.13,2-2Zm-8.63-1.61c-1.13,1.12-2.36,2.53-.81,4.1s2.82.39,3.87-.64l1.74-1.71-3.23-3.29Z" transform="translate(57.73 99.35)"/><path d="M270.6,263.32a13.07,13.07,0,0,1,4-5.52c3.75-3.14,8.72-2.67,12.13,1.4s3.1,9.14-.65,12.28a8.66,8.66,0,0,1-6.17,2.39l.15-3.07a5.75,5.75,0,0,0,4.24-1.4c2.51-2.1,2.45-5.56.28-8.15-2.33-2.78-5.73-3.44-8.24-1.34A7.22,7.22,0,0,0,274,263l2.57,3.07,2.5-2.09,1.76,2.09L276.19,270Z" transform="translate(57.73 99.35)"/><path d="M277.4,277.85,268.83,284l-1.59-2.23,6.27-4.47-2.43-3.4-5.94,4.24-1.59-2.23,5.94-4.24-2.68-3.75-6.59,4.71-1.59-2.22,8.89-6.36Z" transform="translate(57.73 99.35)"/><path d="M265.42,286.34l-3.71,2.2-9.7-8.1,2.36,12.43L250.7,295l-8.64-14.63,2.32-1.37,7.18,12.15,0,0-3-14.6,1.7-1,11.33,9.7,0,0-7.18-12.14,2.32-1.37Z" transform="translate(57.73 99.35)"/><path d="M246.67,297l-9.49,4.55L236,299.1l6.94-3.32L241.13,292l-6.57,3.15-1.18-2.47,6.57-3.15-2-4.15-7.31,3.5-1.18-2.47,9.86-4.72Z" transform="translate(57.73 99.35)"/><path d="M233.54,303.22l-3.5,1.34-11.72-9,0,0,4.54,11.78-2.64,1-6.1-15.86,3.35-1.29,12,9.34h0l-4.68-12.17,2.64-1Z" transform="translate(57.73 99.35)"/><path d="M212.12,308l4.67-1.39.78,2.62-12,3.59-.78-2.62,4.66-1.39-4.07-13.66,2.71-.81Z" transform="translate(57.73 99.35)"/><path d="M193.15,307.27a1.82,1.82,0,0,1-2.13-1.42,1.8,1.8,0,1,1,2.13,1.42Z" transform="translate(57.73 99.35)"/><path d="M171.1,314.85a4.21,4.21,0,0,0,3.52,1.28c3.25-.39,5.1-3.31,4.7-6.67-.43-3.6-2.91-6-6.16-5.63a4.4,4.4,0,0,0-3.3,2.47l-2.52-1.49a6.87,6.87,0,0,1,5.52-3.7c4.86-.57,8.75,2.54,9.38,7.81s-2.42,9.35-7.28,9.92a6.68,6.68,0,0,1-5.84-2Z" transform="translate(57.73 99.35)"/><path d="M166.3,319.28l-2.83.11-.25-6.76-7.43.28.26,6.76-2.83.11-.65-17,2.83-.11.29,7.48,7.42-.28-.28-7.48,2.82-.11Z" transform="translate(57.73 99.35)"/><path d="M143.8,319.53l-2.44-.1-6.11-17.27,3.23.14,1.31,3.95,6.88.29,1.6-3.82,3.16.13Zm-3.13-10.65,2.14,7,2.79-6.8Z" transform="translate(57.73 99.35)"/><path d="M132,318.83l-5.48-.65c-3-.35-5.75-1.74-5.3-5.53a4.26,4.26,0,0,1,4.19-4.14l-3.3-8,3.38.4,2.81,7.58,2.05.25.85-7.15,2.8.33Zm-4.14-7.74c-1.58-.18-3.45-.26-3.71,1.93-.23,2,1.48,2.45,2.92,2.62l2.43.29.54-4.58Z" transform="translate(57.73 99.35)"/><path d="M106.41,298.75a13.09,13.09,0,0,1,6.78-.35c4.8,1,7.53,5.13,6.49,10.33s-5.2,8.14-10,7.18a8.7,8.7,0,0,1-5.72-3.33l2.49-1.8a5.77,5.77,0,0,0,3.75,2.44c3.21.64,5.87-1.56,6.54-4.88.71-3.56-.9-6.62-4.11-7.26a7.09,7.09,0,0,0-3.83.14l-.78,3.93,3.19.64-.54,2.68-6-1.2Z" transform="translate(57.73 99.35)"/><path d="M99.3,313.14l-10.12-2.87.74-2.63,7.41,2.1,1.14-4-7-2,.75-2.63,7,2,1.26-4.43-7.79-2.21.74-2.63,10.52,3Z" transform="translate(57.73 99.35)"/><path d="M85.17,309.09l-4-1.54.28-12.63-8.24,9.6-4-1.51,6-15.89,2.52,1-5,13.19,0,0,9.53-11.48,1.84.71-.51,14.9,0,0,5-13.19,2.52,1Z" transform="translate(57.73 99.35)"/><path d="M65.12,301.08l-9.47-4.58L56.84,294l6.93,3.35,1.82-3.76L59,290.45,60.21,288l6.57,3.18,2-4.15-7.3-3.53L62.68,281l9.84,4.77Z" transform="translate(57.73 99.35)"/><path d="M52.08,294.67l-3.24-1.9L48.58,278l0,0-6.38,10.89-2.44-1.43,8.59-14.66,3.1,1.82.19,15.22,0,0,6.58-11.24L60.66,280Z" transform="translate(57.73 99.35)"/><path d="M35,280.91l4,2.78-1.57,2.25-10.32-7.17,1.56-2.25,4,2.78,8.14-11.71,2.33,1.61Z" transform="translate(57.73 99.35)"/><path d="M23.73,265.67a1.81,1.81,0,0,1-.22-2.55,1.8,1.8,0,1,1,.22,2.55Z" transform="translate(57.73 99.35)"/><path d="M4,253.19a4.2,4.2,0,0,0,1.21,3.54c2.33,2.3,5.77,1.91,8.14-.5,2.54-2.59,2.88-6,.54-8.32a4.4,4.4,0,0,0-4-1L9.49,244a6.87,6.87,0,0,1,6.35,2c3.48,3.43,3.49,8.42-.23,12.2s-8.81,4-12.3.53a6.74,6.74,0,0,1-2.08-5.82Z" transform="translate(57.73 99.35)"/><path d="M-2.46,252.21l-1.85-2.14,5.12-4.43L-4,240l-5.12,4.43L-11,242.32,1.82,231.19l1.85,2.14L-2,238.23l4.87,5.62,5.66-4.91,1.85,2.14Z" transform="translate(57.73 99.35)"/><path d="M-16.76,234.75l-1.45-2,9.67-15.56,1.91,2.61-2.26,3.49,4.07,5.56,4-1.14L1,230.3Zm6.36-9.1-4.13,6,7-2.07Z" transform="translate(57.73 99.35)"/><path d="M-23.6,225.07l-2.91-4.69c-1.61-2.59-2.23-5.58,1-7.6,2.08-1.29,4.31-1.12,5.86.7l4.15-7.55,1.8,2.9-4.17,6.92,1.09,1.75,6.11-3.8,1.5,2.41Zm3.47-8.07c-.84-1.35-1.95-2.86-3.83-1.69-1.71,1.06-1,2.68-.22,3.92l1.29,2.07,3.92-2.43Z" transform="translate(57.73 99.35)"/><path d="M-23.87,192.55a13.08,13.08,0,0,1,4.5,5.07c2.24,4.35.69,9.09-4,11.52s-9.61,1-11.85-3.33a8.68,8.68,0,0,1-1-6.55l3,.82a5.81,5.81,0,0,0,.43,4.45c1.5,2.92,4.89,3.62,7.9,2.07,3.22-1.67,4.61-4.83,3.11-7.74a7.25,7.25,0,0,0-2.5-2.91l-3.56,1.84,1.49,2.89-2.43,1.26-2.79-5.41Z" transform="translate(57.73 99.35)"/><path d="M-39.56,196l-4.08-9.71,2.53-1.06,3,7.1,3.85-1.62L-37.11,184l2.53-1.06,2.82,6.72,4.25-1.78-3.14-7.47,2.52-1.06,4.24,10.08Z" transform="translate(57.73 99.35)"/><path d="M-45.2,182.43l-1.32-4.1,10-7.68-12.64-.44-1.3-4.06,16.18-5.2.82,2.57-13.44,4.31,0,0,14.91.28.6,1.88-12,8.91v0l13.44-4.31.82,2.56Z" transform="translate(57.73 99.35)"/><path d="M-51.47,161.76l-2.33-10.27,2.67-.6,1.7,7.5,4.08-.92L-47,150.36l2.67-.61,1.62,7.11,4.49-1L-40,148l2.67-.61L-34.9,158Z" transform="translate(57.73 99.35)"/><path d="M-54.6,147.57l-.54-3.71,11.4-9.42v-.05l-12.5,1.81-.4-2.8L-39.83,131l.51,3.55-11.77,9.64v0l12.9-1.86.4,2.79Z" transform="translate(57.73 99.35)"/><path d="M-54.49,125.64l.33,4.86-2.73.18-.84-12.53L-55,118l.32,4.86,14.22-.95.19,2.82Z" transform="translate(57.73 99.35)"/><path d="M-49.64,107.34a1.82,1.82,0,0,1,1.86-1.77,1.85,1.85,0,0,1,1.84,1.83,1.82,1.82,0,0,1-1.85,1.76A1.83,1.83,0,0,1-49.64,107.34Z" transform="translate(57.73 99.35)"/><path d="M-52.24,84.18a4.23,4.23,0,0,0-2,3.16c-.33,3.26,2.12,5.7,5.49,6,3.61.36,6.5-1.53,6.83-4.79a4.38,4.38,0,0,0-1.69-3.76l2-2.14a6.87,6.87,0,0,1,2.4,6.2c-.49,4.87-4.38,8-9.66,7.45S-57.47,92-57,87.08a6.71,6.71,0,0,1,3.24-5.26Z" transform="translate(57.73 99.35)"/><path d="M-55.52,78.53l.51-2.78L-48.35,77-47,69.67l-6.65-1.22.51-2.78,16.71,3.07-.51,2.78-7.36-1.35-1.35,7.3,7.37,1.35-.51,2.78Z" transform="translate(57.73 99.35)"/><path d="M-50.82,56.43l.64-2.36L-32,51.9-32.84,55l-4.14.41-1.8,6.65,3.37,2.4-.82,3.06Zm11.08-.72-7.31.55,6,4.21Z" transform="translate(57.73 99.35)"/><path d="M-47.53,45l1.85-5.2c1-2.87,3-5.23,6.57-3.95a4.27,4.27,0,0,1,3.11,5l8.49-1.46-1.14,3.22-8,1.06-.69,1.94,6.78,2.41-.95,2.67Zm8.47-2.32c.53-1.5,1-3.31-1.06-4.05-1.9-.67-2.71.9-3.2,2.27l-.82,2.31,4.34,1.54Z" transform="translate(57.73 99.35)"/><path d="M-22.27,24.53a12.9,12.9,0,0,1-1.16,6.68c-2,4.47-6.67,6.21-11.51,4s-6.78-6.87-4.78-11.34a8.74,8.74,0,0,1,4.51-4.84L-34,21.9A5.78,5.78,0,0,0-37.21,25c-1.34,3,.22,6.08,3.31,7.46,3.3,1.48,6.65.59,8-2.4a7.11,7.11,0,0,0,.71-3.76l-3.65-1.64-1.34,3-2.49-1.12L-30.19,21Z" transform="translate(57.73 99.35)"/><path d="M-34.72,14.4l5-9.24,2.4,1.32L-31,13.23l3.66,2,3.5-6.4,2.4,1.31-3.49,6.41,4,2.21L-17,11.64l2.4,1.32-5.24,9.59Z" transform="translate(57.73 99.35)"/><path d="M-27.65,1.56-25.26-2-13,1-20.54-9.13l2.36-3.55L-4-3.29-5.52-1-17.28-8.85l0,0L-8.22,3-9.31,4.66-23.73.87l0,0L-12,8.71-13.5,11Z" transform="translate(57.73 99.35)"/><path d="M-15.42-16.22l6.55-8.23,2.14,1.7-4.79,6,3.26,2.6,4.54-5.7,2.14,1.7-4.54,5.71,3.6,2.87,5.05-6.34,2.14,1.71L-2.14-5.64Z" transform="translate(57.73 99.35)"/><path d="M-6.3-27.53l2.56-2.74,14.47,3,0,0L1.54-35.93,3.47-38,15.88-26.4l-2.45,2.63L-1.45-26.93l0,0L8-18,6.11-15.93Z" transform="translate(57.73 99.35)"/><path d="M10.86-41.17l-3.59,3.3-1.85-2,9.26-8.5,1.85,2-3.59,3.3,9.65,10.5L20.5-30.66Z" transform="translate(57.73 99.35)"/><path d="M28.22-48.85a1.82,1.82,0,0,1,2.54.34,1.84,1.84,0,0,1-.27,2.58A1.82,1.82,0,0,1,28-46.27,1.84,1.84,0,0,1,28.22-48.85Z" transform="translate(57.73 99.35)"/></g><g id="o-vacances"><path d="M59.69,114.5A29.71,29.71,0,1,1,30,84.81a31.72,31.72,0,0,1,3.67.22,66.55,66.55,0,0,0-4.23,12.59l-.15.63a16.27,16.27,0,1,0,17,17l.63-.15a66.3,66.3,0,0,0,12.59-4.23A29.64,29.64,0,0,1,59.69,114.5Z" transform="translate(57.73 99.35)"/><path d="M61.72,104.87a12.82,12.82,0,0,1-3,2.1A59.14,59.14,0,0,1,46,111.4c-8.06,2-15.94,3.08-15.94,3.08s1.08-7.89,3.08-16a59.24,59.24,0,0,1,4.43-12.76,14.44,14.44,0,0,1,1.56-2.4,5.78,5.78,0,0,1,1.92.49,13.61,13.61,0,0,0-1.86,2.39h0a13.89,13.89,0,0,0,.34,15,14.68,14.68,0,0,0,1.68,2,15.21,15.21,0,0,0,2,1.68h0a13.91,13.91,0,0,0,15,.34h0A13.89,13.89,0,0,0,45.4,80.8a4.11,4.11,0,0,0-1.54-.37,4.19,4.19,0,0,0,.09-.71,15.62,15.62,0,0,1,17.77,25.15Z" transform="translate(57.73 99.35)"/><path d="M42.79,83.22a6,6,0,0,1,3,1.52c.78.88,1,2.23-.59,4.26-.19.23-.39.47-.63.72a3.25,3.25,0,0,0,.08-1,4.85,4.85,0,0,0-.78-2.37A6.18,6.18,0,0,0,43,85.2a6.38,6.38,0,0,0-2-1.34,5.78,5.78,0,0,0-1.92-.49l-.29,0a4.86,4.86,0,0,0-4.13,1.83l-.12.16a1.09,1.09,0,0,1,0-.18c.36-5.62,4.86-3.94,5-3.9a6.43,6.43,0,0,0-2.31-1.56,2.21,2.21,0,0,0-1.48,0,3.4,3.4,0,0,1,4.45-.86,4.92,4.92,0,0,1,1.24,1A4.21,4.21,0,0,0,41,76.94a3.2,3.2,0,0,0-.56-.69,5.21,5.21,0,0,1,1.39.3A3.09,3.09,0,0,1,44,79.72a4.19,4.19,0,0,1-.09.71,4.11,4.11,0,0,1,1.54.37A3.61,3.61,0,0,1,47.5,84a1.09,1.09,0,0,1,0,.18l-.16-.12C44.62,82,42.79,83.22,42.79,83.22Z" transform="translate(57.73 99.35)"/><path d="M56.13,92.17a.14.14,0,0,1,0,.06l0,.13a3.12,3.12,0,0,1,.11.53v0a0,0,0,0,1,0,0,1,1,0,0,1,0,.17c0,.38-.08.64-.57.68a.77.77,0,0,0-.37.12.37.37,0,0,0-.15.22c0,.26.24.26.4.35s.52.18.44.49-.37.27-.61.3c-.63.08-1.27.16-1.9.26-.21,0-.5.06-.48.34s.31.28.53.29.66,0,1,0,.49.08.52.33-.26.31-.47.35c-.54.1-1.09.15-1.62.26-.22,0-.57,0-.6.33s.35.25.55.34.79.11.81.49a.45.45,0,0,1,0,.11c-.06.44-.58.39-.94.41l-.21,0c-.41,0-.83,0-1.24,0A9.06,9.06,0,0,1,49,98.69l-.23-.06a.8.8,0,0,1-.16-.08.31.31,0,0,1-.11-.22c0-.26.26-.25.44-.3s.3-.12.3-.3-.16-.3-.34-.34l-1.43-.26c-.21,0-.47,0-.47-.35s.26-.34.46-.41.56-.15.82-.24.36-.14.3-.37-.2-.22-.36-.24l-1.59-.12c-.24,0-.51,0-.56-.32s.18-.4.43-.48.49-.08.46-.37a.41.41,0,0,0-.29-.33h0a1.29,1.29,0,0,0-.26-.08c-.54-.17-.74-.22-.79-.46a2.31,2.31,0,0,1,0-.69,5.42,5.42,0,0,1,4.86-4.34H51a5,5,0,0,1,.95.09l.14,0,.13,0A5.32,5.32,0,0,1,56.13,92.17Z" transform="translate(57.73 99.35)"/><path d="M91.25,98.1c9.62-.17,16.41,6.27,16.41,16.15,0,9.62-6.79,16.06-16.41,16.24-9.49,0-16.28-6.44-16.28-16.07C75,104.54,81.76,98.1,91.25,98.1Zm0,27.43c6.4,0,10.63-4.88,10.63-11.45,0-6.14-4.23-11-10.63-11s-10.57,4.88-10.57,11C80.72,120.65,84.94,125.53,91.29,125.53Z" transform="translate(57.73 99.35)"/><path d="M113.16,98.88h5.31l-3.7,11.5h-4.66Z" transform="translate(57.73 99.35)"/><path d="M121,98.88h6.31l8.4,23.29,8.67-23.29h5.92L137.82,129.7h-4.75Z" transform="translate(57.73 99.35)"/><path d="M155.76,130.23c-3.87,0-7.62-2.14-7.62-6.27,0-6.79,7.93-7.27,13.15-7.27h1.31v-.57c0-2.57-2-3.92-4.79-3.92a8.18,8.18,0,0,0-5.57,2.18l-2.75-2.74a12.26,12.26,0,0,1,8.88-3.35c8.93,0,8.93,6.44,8.93,9.4v3.76a8.7,8.7,0,0,1-8.33,8.69C157.66,130.19,156.5,130.23,155.76,130.23Zm6.53-9.89H161.2c-2.87,0-7.83.22-7.83,3.23,0,1.91,2,2.74,3.66,2.74,3.56,0,5.26-1.87,5.26-4.79Z" transform="translate(57.73 99.35)"/><path d="M186.67,115.08a5.76,5.76,0,0,0-4-2.09,6.27,6.27,0,0,0,0,12.54,5,5,0,0,0,4-2l3.48,3.74a11.83,11.83,0,0,1-7.53,2.92c-6.31,0-11.36-4.4-11.36-11s5.05-11,11.36-11a10.19,10.19,0,0,1,7.57,3.17Z" transform="translate(57.73 99.35)"/><path d="M202,130.23c-3.88,0-7.62-2.14-7.62-6.27,0-6.79,7.92-7.27,13.15-7.27h1.3v-.57c0-2.57-2-3.92-4.78-3.92a8.23,8.23,0,0,0-5.58,2.18l-2.74-2.74a12.24,12.24,0,0,1,8.88-3.35c8.92,0,8.92,6.44,8.92,9.4v3.76a8.7,8.7,0,0,1-8.33,8.69C203.85,130.19,202.69,130.23,202,130.23Zm6.53-9.89h-1.09c-2.87,0-7.84.22-7.84,3.23,0,1.91,2,2.74,3.66,2.74,3.57,0,5.27-1.87,5.27-4.79Z" transform="translate(57.73 99.35)"/><path d="M217.53,108.81h5v3.35h.08a6.55,6.55,0,0,1,6.4-3.87c5.62,0,7.62,4,7.62,8.22V129.7h-5.22V119.13c0-2.31-.18-6.14-3.84-6.14-3.43,0-4.78,2.52-4.78,5.31v11.4h-5.23Z" transform="translate(57.73 99.35)"/><path d="M256,115.08a5.76,5.76,0,0,0-4-2.09,6.27,6.27,0,0,0,0,12.54,5,5,0,0,0,4.05-2l3.48,3.74a11.83,11.83,0,0,1-7.53,2.92c-6.31,0-11.36-4.4-11.36-11s5-11,11.36-11a10.19,10.19,0,0,1,7.57,3.17Z" transform="translate(57.73 99.35)"/><path d="M266.85,121.08a5.42,5.42,0,0,0,5.62,5,6.85,6.85,0,0,0,5.61-2.83l3.75,2.83a10.9,10.9,0,0,1-8.84,4.18c-6.31,0-11.36-4.4-11.36-11s5.05-11,11.36-11c5.83,0,9.8,4.09,9.8,11.36v1.43Zm10.71-3.91c0-3-2-5-5.31-5-3.09,0-5,2-5.4,5Z" transform="translate(57.73 99.35)"/><path d="M299.36,114.58a4.75,4.75,0,0,0-4.09-2.13c-1.39,0-3,.65-3,2.22,0,3.74,11.28.7,11.28,8.84,0,5-4.75,6.7-9,6.7-3.23,0-6-.83-8.15-3.22l3.49-3.27c1.35,1.48,2.74,2.57,5,2.57,1.52,0,3.48-.74,3.48-2.39,0-4.31-11.27-.92-11.27-8.88,0-4.66,4.18-6.75,8.4-6.75,2.79,0,5.75.87,7.44,3.18Z" transform="translate(57.73 99.35)"/></g></svg>