<svg id="loading" xmlns="http://www.w3.org/2000/svg" viewBox="0 0 419.27 419.13"><title>loading</title><g id="loadingCircle"><path d="M46.51-60.72a4.22,4.22,0,0,0-3.73.37C40-58.6,39.61-55.16,41.42-52.3c1.94,3.06,5.21,4.17,8,2.41a4.41,4.41,0,0,0,1.92-3.65l2.92.26a6.89,6.89,0,0,1-3.39,5.72c-4.14,2.61-9,1.48-11.83-3S37.17-60,41.3-62.65a6.7,6.7,0,0,1,6.14-.7Z" transform="translate(57.42 93.82)"/><path d="M49-66.79l2.5-1.32,3.14,6,6.58-3.45-3.15-6,2.51-1.32,7.89,15-2.5,1.32-3.48-6.63L55.87-59.7l3.48,6.63-2.51,1.32Z" transform="translate(57.42 93.82)"/><path d="M69.21-76.75l2.26-1,12.93,13-3,1.26-2.89-3L72.2-63.79l.2,4.14-2.92,1.24Zm7.41,8.28-5-5.41.41,7.33Z" transform="translate(57.42 93.82)"/><path d="M80.21-81.19l5.23-1.75c2.89-1,6-.89,7.17,2.73a4.27,4.27,0,0,1-2,5.54L97-68.89l-3.24,1.08L88-73.46,86-72.8,88.3-66l-2.68.9ZM87.27-76c1.51-.51,3.22-1.24,2.52-3.33-.64-1.91-2.38-1.58-3.76-1.12l-2.32.78,1.47,4.37Z" transform="translate(57.42 93.82)"/><path d="M111.93-74a13,13,0,0,1-6,3.22c-4.74,1.19-9-1.41-10.28-6.56s1.22-9.58,6-10.76a8.68,8.68,0,0,1,6.59.55l-1.48,2.7a5.77,5.77,0,0,0-4.43-.6c-3.18.79-4.64,3.92-3.82,7.21.87,3.51,3.63,5.59,6.81,4.8a7.2,7.2,0,0,0,3.4-1.76l-1-3.89-3.15.79-.66-2.66,5.9-1.47Z" transform="translate(57.42 93.82)"/><path d="M112.2-90l10.38-1.73.46,2.69-7.6,1.27.69,4.12,7.19-1.2.45,2.7L116.58-81l.76,4.54,8-1.33.45,2.69L115-73.27Z" transform="translate(57.42 93.82)"/><path d="M126.69-92.4l4.29-.34,5.17,11.53,3.33-12.2,4.25-.34,1.34,16.94-2.68.21-1.11-14.07h-.05l-3.69,14.45-2,.15-5.92-13.69h-.05l1.11,14.07-2.68.21Z" transform="translate(57.42 93.82)"/><path d="M148.24-93.82l10.52.17,0,2.74L151-91,151-86.86l7.29.12,0,2.73-7.29-.12-.08,4.61,8.1.14-.05,2.73L148-76.83Z" transform="translate(57.42 93.82)"/><path d="M162.64-93.59l3.74.31L173-80.06H173l1.06-12.58,2.81.24-1.42,16.93-3.58-.3L165.17-89.4h0l-1.1,13-2.81-.23Z" transform="translate(57.42 93.82)"/><path d="M184-88.55l-4.81-.78L179.6-92,192-90l-.44,2.7-4.81-.78L184.48-74l-2.79-.46Z" transform="translate(57.42 93.82)"/><path d="M200.73-79.66a1.8,1.8,0,0,1,1.3,2.2,1.83,1.83,0,0,1-2.19,1.38,1.81,1.81,0,0,1-1.3-2.2A1.83,1.83,0,0,1,200.73-79.66Z" transform="translate(57.42 93.82)"/><path d="M223.92-76.88a4.23,4.23,0,0,0-2.61-2.68c-3.1-1.07-6,.76-7.14,4-1.18,3.42,0,6.67,3.09,7.74a4.38,4.38,0,0,0,4.05-.78l1.62,2.44a6.85,6.85,0,0,1-6.58.92c-4.63-1.6-6.77-6.1-5-11.11s6.25-7.36,10.87-5.76a6.73,6.73,0,0,1,4.38,4.36Z" transform="translate(57.42 93.82)"/><path d="M230.18-78.77l2.58,1.13L230-71.44l6.8,3,2.72-6.19,2.59,1.13L235.31-58l-2.59-1.14,3-6.85-6.8-3-3,6.86-2.58-1.14Z" transform="translate(57.42 93.82)"/><path d="M250.61-69.12l2.15,1.17-2.07,18.2-2.84-1.54.55-4.13-6.06-3.28L239.23-56l-2.78-1.5Zm-1.85,11,1.15-7.24-5.49,4.89Z" transform="translate(57.42 93.82)"/><path d="M260.9-63.31l4.64,3c2.57,1.65,4.41,4.1,2.34,7.31a4.27,4.27,0,0,1-5.59,1.87l-.52,8.6-2.87-1.84.81-8L258-53.55l-3.9,6L251.7-49Zm.33,8.77c1.34.87,3,1.76,4.18-.1,1.09-1.69-.25-2.84-1.48-3.64l-2.05-1.32-2.5,3.87Z" transform="translate(57.42 93.82)"/><path d="M275.09-34a12.92,12.92,0,0,1-6.24-2.65c-3.89-3-4.52-7.91-1.3-12.13s8.24-5,12.13-2.06a8.7,8.7,0,0,1,3.68,5.5l-3,.52A5.8,5.8,0,0,0,278-48.69c-2.61-2-6-1.17-8,1.52-2.2,2.88-2.1,6.33.5,8.32A7.27,7.27,0,0,0,274-37.3l2.43-3.18-2.58-2,1.66-2.18,4.83,3.69Z" transform="translate(57.42 93.82)"/><path d="M287.8-43.84l7.84,7-1.82,2-5.74-5.12L285.3-36.8l5.43,4.86-1.82,2-5.44-4.86-3.07,3.43,6,5.4-1.83,2-8.14-7.29Z" transform="translate(57.42 93.82)"/><path d="M298.69-34l3,3.14-5.76,11.24,11.6-5,2.92,3.1L298-9.93l-1.84-2,10.27-9.68,0,0-13.58,6.16-1.35-1.44,7-13.18,0,0-10.27,9.68-1.85-2Z" transform="translate(57.42 93.82)"/><path d="M313.25-18.08l6.53,8.26-2.15,1.7-4.77-6-3.28,2.59,4.52,5.73L312-4.15l-4.53-5.72L303.82-7l5,6.36L306.7,1l-6.78-8.57Z" transform="translate(57.42 93.82)"/><path d="M322.17-6.64l2.09,3.12L318.05,9.89l0,0,10.49-7,1.58,2.35L316,14.71l-2-3L320.48-2l0,0L309.63,5.16l-1.58-2.35Z" transform="translate(57.42 93.82)"/><path d="M331.54,13.18l-2.39-4.24,2.39-1.35,6.17,11-2.39,1.34-2.39-4.24-12.42,7-1.38-2.46Z" transform="translate(57.42 93.82)"/><path d="M335.07,31.84a1.81,1.81,0,0,1-.9,2.39,1.85,1.85,0,0,1-2.46-.85,1.85,1.85,0,0,1,3.36-1.54Z" transform="translate(57.42 93.82)"/><path d="M347.36,51.67a4.18,4.18,0,0,0,.47-3.71c-1.1-3.09-4.36-4.24-7.55-3.11-3.41,1.21-5.22,4.16-4.12,7.25a4.38,4.38,0,0,0,3.14,2.67l-.89,2.8A6.87,6.87,0,0,1,333.57,53c-1.63-4.61.54-9.1,5.54-10.88s9.65.29,11.29,4.9a6.75,6.75,0,0,1-.67,6.15Z" transform="translate(57.42 93.82)"/><path d="M352.75,55.37l.72,2.74-6.54,1.74L348.84,67l6.54-1.75.73,2.73-16.42,4.38L339,69.66l7.24-1.93-1.91-7.18-7.24,1.93-.72-2.73Z" transform="translate(57.42 93.82)"/><path d="M358,77.37l.43,2.4-15.52,9.74-.57-3.19,3.57-2.14-1.22-6.78-4.08-.73L340,73.55Zm-9.72,5.38,6.38-3.62-7.25-1.24Z" transform="translate(57.42 93.82)"/><path d="M359.85,89l.56,5.5c.31,3-.45,6-4.25,6.38a4.27,4.27,0,0,1-5-3.19l-7,5-.35-3.39,6.79-4.39-.21-2.05-7.16.72-.29-2.81Zm-6.65,5.73c.16,1.59.49,3.43,2.69,3.2,2-.2,2.06-2,1.92-3.42l-.25-2.43-4.59.46Z" transform="translate(57.42 93.82)"/><path d="M345.83,118.39a13.08,13.08,0,0,1-1.83-6.54c-.11-4.89,3.36-8.47,8.66-8.59s9.08,3.29,9.19,8.18a8.69,8.69,0,0,1-2,6.31l-2.3-2a5.8,5.8,0,0,0,1.56-4.19c-.07-3.28-2.81-5.39-6.19-5.31-3.62.08-6.26,2.32-6.18,5.59a7.08,7.08,0,0,0,1,3.7l4-.09-.07-3.25,2.73-.06.14,6.08Z" transform="translate(57.42 93.82)"/><path d="M361.43,122.17l-.57,10.51-2.73-.15.42-7.68-4.17-.23-.4,7.28-2.73-.15.39-7.28-4.6-.25-.44,8.09-2.73-.15.59-10.91Z" transform="translate(57.42 93.82)"/><path d="M360.59,136.81l-.6,4.27-12.38,2.53,11.18,5.91-.6,4.22-16.82-2.37.38-2.67,14,2v0l-13.3-6.75.28-2,14.64-2.8v0l-14-2,.38-2.66Z" transform="translate(57.42 93.82)"/><path d="M357.22,158.17l-2.36,10.25-2.67-.61,1.73-7.5-4.06-.94-1.65,7.1-2.66-.61,1.64-7.11-4.49-1-1.82,7.9-2.67-.62,2.46-10.65Z" transform="translate(57.42 93.82)"/><path d="M353.86,172.29l-1.13,3.58-14.36,3.52v0l12,3.82-.86,2.69-16.19-5.13,1.08-3.42,14.8-3.55,0-.05-12.42-3.93.85-2.7Z" transform="translate(57.42 93.82)"/><path d="M344.22,192l1.83-4.51,2.54,1-4.72,11.65-2.54-1,1.83-4.51L330,189.25l1.06-2.62Z" transform="translate(57.42 93.82)"/><path d="M331.83,206.37a1.82,1.82,0,0,1-2.44.78,1.8,1.8,0,1,1,2.44-.78Z" transform="translate(57.42 93.82)"/><path d="M324,228.34a4.22,4.22,0,0,0,3.2-2c1.73-2.78.6-6-2.28-7.84-3.08-1.91-6.51-1.49-8.24,1.3a4.36,4.36,0,0,0-.13,4.12l-2.74,1a6.84,6.84,0,0,1,.56-6.63c2.58-4.15,7.45-5.25,11.95-2.45s5.8,7.73,3.21,11.89a6.73,6.73,0,0,1-5.22,3.3Z" transform="translate(57.42 93.82)"/><path d="M324.45,234.86l-1.68,2.27-5.45-4-4.41,6,5.44,4-1.68,2.27L303,235.28l1.68-2.27,6,4.45,4.41-6-6-4.45,1.68-2.27Z" transform="translate(57.42 93.82)"/><path d="M310.52,252.66l-1.61,1.84-17.29-6,2.13-2.43,3.9,1.44,4.53-5.18-2-3.64,2.08-2.39Zm-10.27-4.22,6.81,2.71-3.56-6.42Z" transform="translate(57.42 93.82)"/><path d="M302.57,261.44l-3.93,3.87c-2.18,2.14-5,3.4-7.64.68a4.29,4.29,0,0,1-.61-5.87l-8.27-2.4,2.43-2.39,7.67,2.56,1.48-1.45-5.05-5.14,2-2Zm-8.63-1.61c-1.13,1.12-2.36,2.53-.81,4.1s2.83.38,3.87-.64l1.74-1.71-3.23-3.29Z" transform="translate(57.42 93.82)"/><path d="M270.91,268.84a13.1,13.1,0,0,1,4-5.51c3.75-3.14,8.72-2.67,12.13,1.39s3.1,9.15-.65,12.29a8.71,8.71,0,0,1-6.17,2.39l.15-3.07a5.79,5.79,0,0,0,4.24-1.4c2.51-2.11,2.46-5.56.28-8.16-2.33-2.77-5.72-3.43-8.24-1.33a7.16,7.16,0,0,0-2.28,3.08l2.58,3.07,2.49-2.09,1.76,2.09-4.66,3.91Z" transform="translate(57.42 93.82)"/><path d="M277.71,283.38l-8.57,6.12-1.59-2.23,6.27-4.47-2.43-3.4-5.94,4.24-1.59-2.23,5.94-4.24-2.68-3.75-6.59,4.71-1.59-2.23,8.89-6.35Z" transform="translate(57.42 93.82)"/><path d="M265.74,291.87,262,294.06,252.32,286l2.37,12.43L251,300.57l-8.65-14.63,2.32-1.37,7.18,12.15,0,0-3-14.6,1.7-1,11.33,9.69,0,0-7.18-12.15,2.32-1.37Z" transform="translate(57.42 93.82)"/><path d="M247,302.55l-9.49,4.54-1.18-2.46,6.94-3.33-1.8-3.76-6.58,3.15-1.18-2.47,6.57-3.15-2-4.15-7.3,3.5L229.78,292l9.86-4.72Z" transform="translate(57.42 93.82)"/><path d="M233.85,308.75l-3.5,1.34-11.72-9,0,0,4.53,11.78-2.64,1L214.38,298l3.35-1.29,12,9.34,0,0L225.1,293.9l2.64-1Z" transform="translate(57.42 93.82)"/><path d="M212.43,313.5l4.67-1.39.78,2.62-12,3.59-.78-2.62,4.67-1.39-4.07-13.66,2.71-.81Z" transform="translate(57.42 93.82)"/><path d="M193.46,312.79a1.8,1.8,0,0,1-2.13-1.41,1.8,1.8,0,1,1,2.13,1.41Z" transform="translate(57.42 93.82)"/><path d="M171.41,320.38a4.21,4.21,0,0,0,3.52,1.28c3.25-.39,5.1-3.31,4.7-6.67-.43-3.6-2.9-6-6.16-5.63a4.38,4.38,0,0,0-3.3,2.47l-2.52-1.49a6.85,6.85,0,0,1,5.52-3.7c4.86-.58,8.75,2.54,9.38,7.81s-2.42,9.35-7.28,9.92a6.71,6.71,0,0,1-5.84-2Z" transform="translate(57.42 93.82)"/><path d="M166.61,324.81l-2.82.11-.26-6.77-7.43.29.26,6.76-2.83.11-.64-17,2.82-.11.29,7.48,7.42-.28-.28-7.49,2.82-.1Z" transform="translate(57.42 93.82)"/><path d="M144.12,325.06l-2.45-.11-6.11-17.26,3.23.14,1.31,3.94,6.88.3,1.6-3.82,3.16.13ZM141,314.4l2.15,7,2.78-6.79Z" transform="translate(57.42 93.82)"/><path d="M132.3,324.36l-5.48-.65c-3-.36-5.76-1.74-5.31-5.53.29-2.43,1.81-4.07,4.19-4.15l-3.3-7.95,3.39.4,2.8,7.58,2,.25.85-7.16,2.81.34Zm-4.15-7.74c-1.58-.19-3.44-.26-3.7,1.93-.24,2,1.47,2.45,2.92,2.62l2.42.29.55-4.58Z" transform="translate(57.42 93.82)"/><path d="M106.72,304.28a13.09,13.09,0,0,1,6.78-.35c4.8,1,7.53,5.13,6.49,10.33s-5.2,8.13-10,7.17a8.67,8.67,0,0,1-5.72-3.32l2.49-1.8a5.86,5.86,0,0,0,3.75,2.44c3.21.64,5.87-1.57,6.54-4.89.71-3.55-.9-6.61-4.11-7.25a7.2,7.2,0,0,0-3.83.13l-.78,3.93,3.19.64L111,314l-6-1.19Z" transform="translate(57.42 93.82)"/><path d="M99.61,318.67,89.49,315.8l.74-2.63,7.41,2.1,1.14-4-7-2,.75-2.63,7,2,1.25-4.44L93,302l.74-2.64,10.52,3Z" transform="translate(57.42 93.82)"/><path d="M85.48,314.61l-4-1.53.27-12.63-8.24,9.6-4-1.52,6-15.88,2.51,1-5,13.19,0,0,9.53-11.48,1.85.7L84,311l0,0,5-13.19,2.51,1Z" transform="translate(57.42 93.82)"/><path d="M65.43,306.61,56,302l1.19-2.47,6.93,3.36,1.82-3.76L59.33,296l1.19-2.46,6.57,3.17,2-4.14L61.8,289l1.2-2.47,9.83,4.77Z" transform="translate(57.42 93.82)"/><path d="M52.39,300.19l-3.24-1.89-.26-14.79,0,0-6.38,10.89L40,293l8.59-14.66,3.1,1.82.19,15.21,0,0,6.59-11.25L61,285.53Z" transform="translate(57.42 93.82)"/><path d="M35.32,286.44l4,2.78-1.56,2.25L27.43,284.3,29,282.05l4,2.78,8.14-11.71,2.32,1.61Z" transform="translate(57.42 93.82)"/><path d="M24.05,271.2a1.81,1.81,0,0,1-.23-2.55,1.84,1.84,0,0,1,2.58-.3,1.85,1.85,0,0,1-2.35,2.85Z" transform="translate(57.42 93.82)"/><path d="M4.33,258.72a4.2,4.2,0,0,0,1.2,3.54c2.33,2.3,5.77,1.91,8.14-.51,2.55-2.58,2.88-6,.54-8.32a4.42,4.42,0,0,0-4-1l-.41-2.9a6.85,6.85,0,0,1,6.34,2c3.49,3.43,3.49,8.41-.23,12.19s-8.81,4-12.29.54a6.71,6.71,0,0,1-2.08-5.82Z" transform="translate(57.42 93.82)"/><path d="M-2.14,257.74-4,255.6l5.12-4.43-4.86-5.62L-8.86,250l-1.85-2.14L2.13,236.72,4,238.85l-5.66,4.91,4.86,5.61,5.66-4.9,1.85,2.14Z" transform="translate(57.42 93.82)"/><path d="M-16.45,240.28l-1.45-2,9.67-15.56,1.91,2.61-2.26,3.49,4.07,5.56,4-1.14,1.87,2.55Zm6.36-9.1-4.13,6,7.05-2.07Z" transform="translate(57.42 93.82)"/><path d="M-23.29,230.6l-2.91-4.69c-1.61-2.59-2.23-5.59,1-7.6,2.08-1.29,4.31-1.12,5.86.69l4.15-7.54,1.8,2.89-4.17,6.93,1.09,1.75,6.12-3.8,1.49,2.4Zm3.47-8.07c-.84-1.35-1.95-2.86-3.82-1.69-1.72,1.06-1,2.68-.23,3.91l1.29,2.08,3.92-2.43Z" transform="translate(57.42 93.82)"/><path d="M-23.56,198.08a13.08,13.08,0,0,1,4.5,5.07c2.25,4.35.69,9.09-4,11.52s-9.61,1-11.85-3.33a8.73,8.73,0,0,1-1-6.55l3,.82a5.82,5.82,0,0,0,.43,4.45c1.51,2.91,4.89,3.62,7.9,2.06,3.22-1.66,4.61-4.82,3.11-7.74a7.22,7.22,0,0,0-2.5-2.9l-3.56,1.84,1.49,2.89-2.43,1.25-2.79-5.4Z" transform="translate(57.42 93.82)"/><path d="M-39.24,201.49l-4.08-9.7,2.52-1.06,3,7.1,3.85-1.62-2.82-6.72,2.52-1.06,2.82,6.72,4.25-1.78-3.14-7.47,2.52-1.06,4.24,10.07Z" transform="translate(57.42 93.82)"/><path d="M-44.89,188l-1.32-4.11,10.05-7.67-12.65-.44-1.3-4.06,16.18-5.2.82,2.57-13.44,4.31,0,0,14.91.28.6,1.88-12,8.91v0l13.44-4.31.82,2.56Z" transform="translate(57.42 93.82)"/><path d="M-51.16,167.28-53.49,157l2.67-.6,1.71,7.5L-45,163l-1.62-7.11,2.67-.61,1.62,7.11,4.49-1-1.79-7.9,2.66-.6,2.43,10.65Z" transform="translate(57.42 93.82)"/><path d="M-54.29,153.09l-.53-3.7L-43.43,140v0l-12.5,1.81-.4-2.8,16.82-2.43.51,3.55-11.77,9.63v0l12.9-1.87.4,2.8Z" transform="translate(57.42 93.82)"/><path d="M-54.18,131.17l.33,4.86-2.73.18-.84-12.54,2.73-.18.32,4.86,14.23-.95.18,2.82Z" transform="translate(57.42 93.82)"/><path d="M-49.33,112.87a1.83,1.83,0,0,1,1.86-1.77,1.84,1.84,0,0,1,1.84,1.83,1.82,1.82,0,0,1-1.85,1.76A1.85,1.85,0,0,1-49.33,112.87Z" transform="translate(57.42 93.82)"/><path d="M-51.93,89.71a4.24,4.24,0,0,0-2,3.16c-.33,3.26,2.13,5.69,5.49,6,3.61.36,6.5-1.53,6.84-4.79a4.4,4.4,0,0,0-1.7-3.76l2-2.14a6.9,6.9,0,0,1,2.41,6.2c-.5,4.86-4.39,8-9.67,7.45s-8.6-4.39-8.1-9.26a6.7,6.7,0,0,1,3.24-5.26Z" transform="translate(57.42 93.82)"/><path d="M-55.21,84.06l.52-2.78L-48,82.5l1.35-7.3L-53.35,74l.51-2.78,16.71,3.07-.51,2.78L-44,75.69-45.35,83-38,84.35l-.51,2.78Z" transform="translate(57.42 93.82)"/><path d="M-50.51,62l.64-2.36,18.19-2.16-.85,3.12-4.14.41-1.8,6.65,3.38,2.4-.83,3Zm11.08-.71-7.31.55,6,4.21Z" transform="translate(57.42 93.82)"/><path d="M-47.22,50.56l1.85-5.2c1-2.88,3-5.23,6.57-4a4.27,4.27,0,0,1,3.11,5L-27.2,45l-1.14,3.22-8,1-.69,2,6.78,2.41-.94,2.67Zm8.47-2.32c.53-1.5,1-3.31-1.06-4.05-1.9-.67-2.71.9-3.2,2.27l-.82,2.31,4.34,1.54Z" transform="translate(57.42 93.82)"/><path d="M-22,30.05a13,13,0,0,1-1.15,6.69c-2,4.46-6.68,6.21-11.52,4s-6.78-6.87-4.77-11.34a8.67,8.67,0,0,1,4.51-4.84l1.2,2.83a5.78,5.78,0,0,0-3.21,3.11c-1.34,3,.22,6.07,3.31,7.46,3.3,1.48,6.65.59,8-2.4a7.11,7.11,0,0,0,.71-3.76l-3.65-1.64-1.33,3-2.5-1.12,2.49-5.55Z" transform="translate(57.42 93.82)"/><path d="M-34.4,19.93l5-9.24L-27,12l-3.69,6.76,3.67,2,3.49-6.4,2.4,1.31-3.49,6.4,4,2.21,3.88-7.11,2.4,1.31-5.24,9.6Z" transform="translate(57.42 93.82)"/><path d="M-27.34,7.09l2.39-3.59,12.26,3.05L-20.23-3.61l2.36-3.55,14.15,9.4L-5.21,4.48-17-3.32l0,0L-7.91,8.54-9,10.19-23.42,6.4l0,0,11.76,7.8-1.49,2.25Z" transform="translate(57.42 93.82)"/><path d="M-15.11-10.69l6.55-8.23,2.14,1.7-4.79,6,3.26,2.6,4.55-5.7,2.14,1.7L-5.81-6.89-2.2-4l5-6.34L5-8.65-1.83-.11Z" transform="translate(57.42 93.82)"/><path d="M-6-22l2.56-2.74,14.47,3,0,0L1.85-30.4l1.93-2.07L16.2-20.87l-2.45,2.63L-1.14-21.4l0,0,9.52,8.9L6.42-10.4Z" transform="translate(57.42 93.82)"/><path d="M11.17-35.64,7.59-32.35l-1.85-2L15-42.86l1.85,2-3.59,3.3L22.9-27l-2.08,1.91Z" transform="translate(57.42 93.82)"/><path d="M28.53-43.32a1.81,1.81,0,0,1,2.54.34,1.84,1.84,0,0,1-.27,2.58,1.82,1.82,0,0,1-2.54-.34A1.84,1.84,0,0,1,28.53-43.32Z" transform="translate(57.42 93.82)"/></g><path d="M39.25,114.05a21.29,21.29,0,0,1-1.38,7.72A19.6,19.6,0,0,1,34,128.08,17.93,17.93,0,0,1,20.5,133.9a17.8,17.8,0,0,1-13.42-5.82,19.43,19.43,0,0,1-3.89-6.31,22.28,22.28,0,0,1,0-15.44A19.64,19.64,0,0,1,7.08,100,17.89,17.89,0,0,1,20.5,94.2,18.21,18.21,0,0,1,28,95.75,18,18,0,0,1,34,100a19.82,19.82,0,0,1,3.89,6.31A21.33,21.33,0,0,1,39.25,114.05Zm-7.17,0a15,15,0,0,0-1.49-6.7,12.09,12.09,0,0,0-4.08-4.76,10.4,10.4,0,0,0-6-1.77,10.4,10.4,0,0,0-6,1.77,11.87,11.87,0,0,0-4.05,4.74,16.15,16.15,0,0,0,0,13.42,11.83,11.83,0,0,0,4.05,4.77,10.4,10.4,0,0,0,6,1.77,10.4,10.4,0,0,0,6-1.77,12.05,12.05,0,0,0,4.08-4.77A14.89,14.89,0,0,0,32.08,114.05Z" transform="translate(57.42 93.82)"/><path d="M53.42,100.32a6.41,6.41,0,0,1-.53,2.27,13.17,13.17,0,0,1-1.43,2.64,9.75,9.75,0,0,1-2.07,2.21,3.92,3.92,0,0,1-2.42.88,3.42,3.42,0,0,1-1.88-.5,1.88,1.88,0,0,1-.77-1.71c0-.8.27-1.3.8-1.49a10.13,10.13,0,0,0,1.35-.55,3.48,3.48,0,0,0,1.13-.91,2,2,0,0,0,.41-1.29,1.39,1.39,0,0,0-.58-1.05,2.24,2.24,0,0,0-1.51-.5,3.88,3.88,0,0,0-.77.09,1.93,1.93,0,0,0-.78.3,2.47,2.47,0,0,1-1-.66A2,2,0,0,1,43,98.67a3.16,3.16,0,0,1,.82-2.15,6.05,6.05,0,0,1,2-1.49,5.67,5.67,0,0,1,2.37-.55A5,5,0,0,1,52,96,6.09,6.09,0,0,1,53.42,100.32Z" transform="translate(57.42 93.82)"/><path d="M61.52,103.85a3.71,3.71,0,0,1,1.93.53A3.17,3.17,0,0,1,64.77,106l8.11,18.52-1.22.55,8.27-19a2.9,2.9,0,0,1,2.93-2.09,3,3,0,0,1,2.23.85,2.89,2.89,0,0,1,.85,2.13,2.79,2.79,0,0,1-.13.82c-.1.3-.2.57-.31.83L75.19,131.26a3.14,3.14,0,0,1-2.81,2.09,3,3,0,0,1-2-.39,3.42,3.42,0,0,1-1.46-1.7L58.65,108.54q-.1-.27-.24-.72a3.23,3.23,0,0,1-.14-1,2.88,2.88,0,0,1,.88-2A3.07,3.07,0,0,1,61.52,103.85Z" transform="translate(57.42 93.82)"/><path d="M114.94,103.3a3.18,3.18,0,0,1,2.37.94,3.25,3.25,0,0,1,.94,2.42V130a3.31,3.31,0,0,1-.94,2.4,3.41,3.41,0,0,1-4.74,0,3.34,3.34,0,0,1-.93-2.4v-2.7l1.21.49a3.13,3.13,0,0,1-.77,1.74,10.7,10.7,0,0,1-2.1,2,12.92,12.92,0,0,1-3.11,1.68,10.75,10.75,0,0,1-3.89.69,12.55,12.55,0,0,1-6.89-2,13.66,13.66,0,0,1-4.88-5.4,18.5,18.5,0,0,1,0-15.88,13.9,13.9,0,0,1,4.82-5.4,12.12,12.12,0,0,1,6.73-2,12.74,12.74,0,0,1,4.36.72,12.89,12.89,0,0,1,3.44,1.82,10.4,10.4,0,0,1,2.26,2.23,3.57,3.57,0,0,1,.8,1.9l-2,.72v-4a3.3,3.3,0,0,1,.93-2.39A3.16,3.16,0,0,1,114.94,103.3Zm-11.13,24.54a7.46,7.46,0,0,0,4.24-1.22,8.1,8.1,0,0,0,2.84-3.3,11.41,11.41,0,0,0,0-9.43,8.13,8.13,0,0,0-2.84-3.31,7.45,7.45,0,0,0-4.24-1.21,7.36,7.36,0,0,0-4.19,1.21,8.13,8.13,0,0,0-2.84,3.31,11.41,11.41,0,0,0,0,9.43,8.1,8.1,0,0,0,2.84,3.3A7.37,7.37,0,0,0,103.81,127.84Z" transform="translate(57.42 93.82)"/><path d="M138.26,103.3a20.34,20.34,0,0,1,5.49.66,9,9,0,0,1,3.64,1.85,3.73,3.73,0,0,1,1.29,2.84,3.61,3.61,0,0,1-.66,2.07,2.19,2.19,0,0,1-1.93,1,3.68,3.68,0,0,1-1.46-.25,3.79,3.79,0,0,1-1-.63,5.37,5.37,0,0,0-1.05-.72,5,5,0,0,0-1.68-.52,10.7,10.7,0,0,0-1.68-.19,8.9,8.9,0,0,0-4.77,1.21,8.11,8.11,0,0,0-3,3.28,10.4,10.4,0,0,0-1.05,4.77,10,10,0,0,0,1.08,4.71,8.34,8.34,0,0,0,3,3.28,8,8,0,0,0,4.39,1.22,14.78,14.78,0,0,0,2.37-.17,5.87,5.87,0,0,0,1.65-.49,11.47,11.47,0,0,0,1.38-.94,2.82,2.82,0,0,1,1.82-.5,2.71,2.71,0,0,1,2.2.91,3.31,3.31,0,0,1,.78,2.23,3.16,3.16,0,0,1-1.55,2.51,12.29,12.29,0,0,1-4.05,1.82,20.39,20.39,0,0,1-5.43.69,13.87,13.87,0,0,1-7.55-2,13.4,13.4,0,0,1-4.94-5.49,17.07,17.07,0,0,1-1.74-7.77,16.66,16.66,0,0,1,1.85-8,13.68,13.68,0,0,1,5.13-5.4A14.34,14.34,0,0,1,138.26,103.3Z" transform="translate(57.42 93.82)"/><path d="M177.69,103.3a3.21,3.21,0,0,1,2.37.94,3.28,3.28,0,0,1,.93,2.42V130a3.34,3.34,0,0,1-.93,2.4,3.42,3.42,0,0,1-4.75,0,3.34,3.34,0,0,1-.93-2.4v-2.7l1.21.49a3.13,3.13,0,0,1-.77,1.74,10.43,10.43,0,0,1-2.1,2,12.92,12.92,0,0,1-3.11,1.68,10.75,10.75,0,0,1-3.89.69,12.58,12.58,0,0,1-6.89-2,13.66,13.66,0,0,1-4.88-5.4,18.5,18.5,0,0,1,0-15.88,13.84,13.84,0,0,1,4.83-5.4,12.06,12.06,0,0,1,6.72-2,12.74,12.74,0,0,1,4.36.72,12.89,12.89,0,0,1,3.44,1.82,10.18,10.18,0,0,1,2.26,2.23,3.5,3.5,0,0,1,.8,1.9l-2,.72v-4a3.3,3.3,0,0,1,.93-2.39A3.17,3.17,0,0,1,177.69,103.3Zm-11.14,24.54a7.44,7.44,0,0,0,4.24-1.22,8.1,8.1,0,0,0,2.84-3.3,11.41,11.41,0,0,0,0-9.43,8.13,8.13,0,0,0-2.84-3.31,7.95,7.95,0,0,0-8.43,0,8.13,8.13,0,0,0-2.84,3.31,11.41,11.41,0,0,0,0,9.43,8.1,8.1,0,0,0,2.84,3.3A7.37,7.37,0,0,0,166.55,127.84Z" transform="translate(57.42 93.82)"/><path d="M203.93,103.3c2.72,0,4.78.57,6.2,1.71a8.72,8.72,0,0,1,2.92,4.55,23.38,23.38,0,0,1,.8,6.31V130a3.34,3.34,0,0,1-.93,2.4,3.42,3.42,0,0,1-4.75,0,3.34,3.34,0,0,1-.93-2.4V115.87a10.83,10.83,0,0,0-.47-3.28,4.64,4.64,0,0,0-1.68-2.34,5.85,5.85,0,0,0-3.48-.88,7.26,7.26,0,0,0-3.72.88,6,6,0,0,0-2.31,2.34,6.67,6.67,0,0,0-.8,3.28V130a3.35,3.35,0,0,1-.94,2.4,3.41,3.41,0,0,1-4.74,0,3.31,3.31,0,0,1-.94-2.4V107.22a3.28,3.28,0,0,1,.94-2.4,3.38,3.38,0,0,1,4.74,0,3.32,3.32,0,0,1,.94,2.4v2.37l-.83-.17a11.34,11.34,0,0,1,1.43-2,13.43,13.43,0,0,1,2.21-2,11.15,11.15,0,0,1,2.86-1.52A10.33,10.33,0,0,1,203.93,103.3Z" transform="translate(57.42 93.82)"/><path d="M233.87,103.3a20.31,20.31,0,0,1,5.48.66,8.89,8.89,0,0,1,3.64,1.85,3.74,3.74,0,0,1,1.3,2.84,3.62,3.62,0,0,1-.67,2.07,2.19,2.19,0,0,1-1.93,1,3.68,3.68,0,0,1-1.46-.25,3.79,3.79,0,0,1-1-.63,5.59,5.59,0,0,0-1-.72,5.12,5.12,0,0,0-1.69-.52,10.7,10.7,0,0,0-1.68-.19,8.9,8.9,0,0,0-4.77,1.21,8.11,8.11,0,0,0-3,3.28,10.4,10.4,0,0,0-1.05,4.77,10,10,0,0,0,1.08,4.71,8.34,8.34,0,0,0,3,3.28,8,8,0,0,0,4.39,1.22,14.69,14.69,0,0,0,2.37-.17,5.87,5.87,0,0,0,1.65-.49,10.07,10.07,0,0,0,1.38-.94,2.82,2.82,0,0,1,1.82-.5,2.71,2.71,0,0,1,2.2.91,3.31,3.31,0,0,1,.78,2.23,3.16,3.16,0,0,1-1.55,2.51,12.29,12.29,0,0,1-4,1.82,20.39,20.39,0,0,1-5.43.69,13.89,13.89,0,0,1-7.55-2,13.4,13.4,0,0,1-4.94-5.49,17.07,17.07,0,0,1-1.73-7.77,16.65,16.65,0,0,1,1.84-8,13.68,13.68,0,0,1,5.13-5.4A14.35,14.35,0,0,1,233.87,103.3Z" transform="translate(57.42 93.82)"/><path d="M263,133.9a16.15,16.15,0,0,1-8.13-2,13.4,13.4,0,0,1-5.29-5.32,15.41,15.41,0,0,1-1.85-7.6,16.77,16.77,0,0,1,2-8.47,14.24,14.24,0,0,1,5.27-5.37,13.58,13.58,0,0,1,6.89-1.88,12.58,12.58,0,0,1,5.32,1.16,14.62,14.62,0,0,1,4.44,3.17,15.57,15.57,0,0,1,3.06,4.66,14.21,14.21,0,0,1,1.13,5.62,2.85,2.85,0,0,1-1.05,2.15,3.51,3.51,0,0,1-2.32.83H251.45l-1.65-5.51H270l-1.21,1.1V115a5,5,0,0,0-1.13-2.87,7.51,7.51,0,0,0-2.54-2,7.14,7.14,0,0,0-3.22-.74,10.31,10.31,0,0,0-3.09.44,5.84,5.84,0,0,0-2.48,1.49,7.12,7.12,0,0,0-1.65,2.81,13.71,13.71,0,0,0-.61,4.46,9.62,9.62,0,0,0,1.24,5.05,8.51,8.51,0,0,0,7.36,4.22,12.83,12.83,0,0,0,3.25-.33,7.43,7.43,0,0,0,2-.8c.5-.32.95-.58,1.35-.8a4.23,4.23,0,0,1,1.87-.5,2.78,2.78,0,0,1,2.82,2.76,3.45,3.45,0,0,1-1.55,2.7,12.51,12.51,0,0,1-4,2.12A16,16,0,0,1,263,133.9Z" transform="translate(57.42 93.82)"/><path d="M279.68,128.77a3.09,3.09,0,0,1-.5-2,2.68,2.68,0,0,1,1.44-2.1,3,3,0,0,1,1.87-.46,3.07,3.07,0,0,1,1.93,1,13.22,13.22,0,0,0,3.37,2.48,9.89,9.89,0,0,0,4.41.88,15,15,0,0,0,1.81-.25,3.48,3.48,0,0,0,1.74-.88,2.75,2.75,0,0,0,.75-2.12,2.42,2.42,0,0,0-.83-1.93,6.92,6.92,0,0,0-2.18-1.22q-1.35-.49-3-.93c-1.14-.34-2.31-.7-3.5-1.11a14,14,0,0,1-3.28-1.57,7.46,7.46,0,0,1-2.43-2.56,7.83,7.83,0,0,1-.94-4,7.25,7.25,0,0,1,1.55-4.68,10,10,0,0,1,4-3,13,13,0,0,1,5.16-1,16.36,16.36,0,0,1,3.58.42,13.72,13.72,0,0,1,3.59,1.32,8.74,8.74,0,0,1,2.86,2.4,3.91,3.91,0,0,1,.72,2,2.4,2.4,0,0,1-1.05,2.1,2.68,2.68,0,0,1-1.93.58,3,3,0,0,1-1.82-.75,6.47,6.47,0,0,0-2.51-1.93,8.55,8.55,0,0,0-3.61-.72,9.08,9.08,0,0,0-1.79.2,3.51,3.51,0,0,0-1.68.83,2.54,2.54,0,0,0-.72,2,2.59,2.59,0,0,0,.83,2,6.11,6.11,0,0,0,2.23,1.21c.94.32,1.94.62,3,.91s2.22.65,3.36,1a13.08,13.08,0,0,1,3.14,1.6,7.62,7.62,0,0,1,2.32,2.56,8.09,8.09,0,0,1,.88,4,7.29,7.29,0,0,1-1.65,4.8,10.52,10.52,0,0,1-4.14,3,13.19,13.19,0,0,1-5.07,1,19.83,19.83,0,0,1-6.51-1.13A11.16,11.16,0,0,1,279.68,128.77Z" transform="translate(57.42 93.82)"/></svg>