<svg xmlns="http://www.w3.org/2000/svg" viewBox="0 0 2410.34 540.13"><defs><style>.cls-1{fill:#8ec5b6;}</style></defs><title>logo</title><g id="logo" data-name="logo"><g id="o-vacances" data-name="o-vacances"><path class="cls-1" d="M472.05,304.11a235.62,235.62,0,0,1-11.69,73.55C429.45,472,340.7,540.13,236,540.13c-130.36,0-236-105.67-236-236C0,199.44,68.13,110.68,162.47,79.77a237.92,237.92,0,0,1,102.71-9.91C253.28,94.42,242,128,231.58,170q-.63,2.5-1.23,5A129.27,129.27,0,1,0,365.16,309.78c1.67-.4,3.35-.81,5-1.23,41.92-10.42,75.52-21.7,100.08-33.59A237.65,237.65,0,0,1,472.05,304.11Z"/><path class="cls-1" d="M488.23,227.58c-5.88,5.88-14,11.45-23.83,16.71-26.18,14-64.06,25.85-101.46,35.15-64.07,15.92-126.73,24.49-126.73,24.49s8.57-62.67,24.49-126.74c9.29-37.4,21.09-75.28,35.15-101.46a117.14,117.14,0,0,1,12.44-19.1,47.79,47.79,0,0,1,15.24,3.88,108.62,108.62,0,0,0-14.75,19h0A110.46,110.46,0,0,0,341,228.64h0a110.54,110.54,0,0,0,119.65,2.72h0A110.42,110.42,0,0,0,358.42,36.17a32.53,32.53,0,0,0-12.18-2.92,29.35,29.35,0,0,0,.65-5.64,124.24,124.24,0,0,1,141.34,200Z"/><path class="cls-1" d="M337.67,55.45s15.85,2.76,24,12.06c6.16,7,7.94,17.76-4.75,33.85-1.46,1.85-3.11,3.77-5,5.77a28,28,0,0,0,.64-8.3,39.17,39.17,0,0,0-6.2-18.8,49.61,49.61,0,0,0-7.19-8.88,51.42,51.42,0,0,0-15.67-10.64,47.79,47.79,0,0,0-15.24-3.88c-.76-.07-1.53-.11-2.29-.14-10.44-.37-23.16,2.36-32.82,14.5-.34.43-.68.87-1,1.32,0-.5.05-1,.08-1.47,2.89-44.66,38.66-31.29,39.52-31-.49-.54-8.71-9.28-18.32-12.41a17.79,17.79,0,0,0-11.79-.2c13.84-14.4,26.92-11.61,35.41-6.77a38.92,38.92,0,0,1,9.82,8s3.05-12.19-3.39-22.92A26.47,26.47,0,0,0,319.06,0a44.31,44.31,0,0,1,11,2.39c14.93,5.46,17,17.91,16.8,25.22a29.35,29.35,0,0,1-.65,5.64,32.53,32.53,0,0,1,12.18,2.92c7.29,3.32,15.4,10.42,16.73,25.59.05.47.08,1,.11,1.43-.43-.34-.86-.68-1.28-1C352.29,45.62,337.67,55.45,337.67,55.45Z"/><path class="cls-1" d="M443.79,126.56c0,.18.09.36.13.54.1.34.2.68.27,1,.35,1.36.65,2.77.87,4.18,0,.06,0,.11,0,.17a.62.62,0,0,1,0,.23c.08.47.14.92.17,1.35.24,3-.65,5.07-4.53,5.4a6,6,0,0,0-3,1,2.78,2.78,0,0,0-1.15,1.75c-.43,2,1.86,2.08,3.15,2.8,1.62.91,4.13,1.4,3.47,3.89-.58,2.19-2.93,2.1-4.83,2.34-5,.67-10.06,1.3-15.09,2-1.69.24-4,.52-3.8,2.73s2.48,2.2,4.19,2.35c2.61.24,5.28.07,7.87.39,1.69.2,3.94.58,4.18,2.56.26,2.32-2.14,2.52-3.75,2.82-4.3.79-8.68,1.18-12.93,2.09-1.74.37-4.5.37-4.72,2.63-.25,2.78,2.73,1.93,4.33,2.67,2.3,1.08,6.3.86,6.45,3.89a3.45,3.45,0,0,1,0,.89c-.52,3.48-4.64,3.11-7.48,3.29l-1.71.09c-3.28.12-6.59,0-9.87,0-6.5.18-13,.32-19.37-1.25-.57-.15-1.22-.26-1.83-.48a4,4,0,0,1-1.25-.59,2.23,2.23,0,0,1-.87-1.75c-.07-2.08,2-2,3.5-2.38,1.28-.31,2.34-.93,2.36-2.41.05-1.77-1.25-2.39-2.7-2.67-3.78-.73-7.57-1.38-11.35-2.06-1.72-.31-3.77-.41-3.74-2.82,0-2.22,2-2.68,3.66-3.24,2.14-.75,4.39-1.18,6.53-1.94,1.3-.45,2.8-1.1,2.32-2.94-.34-1.39-1.58-1.76-2.87-1.85-4.18-.33-8.39-.64-12.58-1-1.91-.15-4.11.06-4.5-2.56s1.48-3.22,3.42-3.87c1.56-.52,3.93-.6,3.68-2.92a3.23,3.23,0,0,0-2.34-2.63h0a19.39,19.39,0,0,0-2-.65c-4.31-1.27-5.95-1.74-6.31-3.62-.23-1.15,0-2.82.41-5.51,2.68-18.11,20.36-33.33,38.63-34.5.8-.05,1.6-.08,2.37-.09h1.42a42,42,0,0,1,7.57.67c.36.05.72.13,1.08.21s.74.14,1.1.23A42.34,42.34,0,0,1,443.79,126.56Z"/><path class="cls-1" d="M723,173.74c76.48-1.39,130.47,49.83,130.47,128.39,0,76.49-54,127.71-130.47,129.09-75.45,0-129.44-51.22-129.44-127.7C593.53,225,647.52,173.74,723,173.74Zm.34,218c50.88,0,84.45-38.76,84.45-91,0-48.8-33.57-87.56-84.45-87.56-50.53,0-84.1,38.76-84.1,87.56C639.21,353,672.78,391.77,723.31,391.77Z"/><path class="cls-1" d="M897.13,180h42.22l-29.42,91.36h-37Z"/><path class="cls-1" d="M959.23,180h50.19l66.79,185.15L1145.08,180h47.07l-99,245h-37.72Z"/><path class="cls-1" d="M1235.85,429.15c-30.8,0-60.57-17-60.57-49.84,0-54,63-57.8,104.52-57.8h10.38V317c0-20.42-15.92-31.15-38.07-31.15a65.37,65.37,0,0,0-44.3,17.3l-21.8-21.8c18.34-18.69,44.3-26.65,70.6-26.65,71,0,71,51.22,71,74.75v29.94a69.08,69.08,0,0,1-66.24,69C1251,428.85,1241.73,429.15,1235.85,429.15Zm51.91-78.56h-8.65c-22.84,0-62.3,1.73-62.3,25.61,0,15.22,15.58,21.8,29.07,21.8,28.38,0,41.88-14.88,41.88-38.07Z"/><path class="cls-1" d="M1481.56,308.71c-9.69-10-20.42-16.61-31.49-16.61-30.46,0-48.8,23.88-48.8,49.83s18.34,49.84,48.8,49.84a39.85,39.85,0,0,0,32.18-15.57L1509.94,406c-17,17-45.34,23.19-59.87,23.19-50.19,0-90.33-35-90.33-87.22s40.14-87.21,90.33-87.21c21.11,0,44.3,7.61,60.22,25.26Z"/><path class="cls-1" d="M1603,429.15c-30.8,0-60.56-17-60.56-49.84,0-54,63-57.8,104.51-57.8h10.39V317c0-20.42-15.92-31.15-38.07-31.15a65.33,65.33,0,0,0-44.3,17.3l-21.81-21.8c18.35-18.69,44.3-26.65,70.61-26.65,70.94,0,70.94,51.22,70.94,74.75v29.94a69.07,69.07,0,0,1-66.23,69C1618.13,428.85,1608.91,429.15,1603,429.15Zm51.91-78.56h-8.65c-22.84,0-62.29,1.73-62.29,25.61,0,15.22,15.57,21.8,29.07,21.8,28.38,0,41.87-14.88,41.87-38.07Z"/><path class="cls-1" d="M1726.92,258.87h39.46v26.65h.69c7.61-16.61,23.18-30.8,50.87-30.8,44.65,0,60.57,31.49,60.57,65.41V425H1837V340.9c0-18.35-1.39-48.8-30.46-48.8-27.34,0-38.07,20.07-38.07,42.22V425h-41.53Z"/><path class="cls-1" d="M2032.51,308.71c-9.69-10-20.42-16.61-31.5-16.61-30.45,0-48.79,23.88-48.79,49.83s18.34,49.84,48.79,49.84a39.86,39.86,0,0,0,32.19-15.57L2060.89,406c-17,17-45.34,23.19-59.88,23.19-50.18,0-90.32-35-90.32-87.22s40.14-87.21,90.32-87.21c21.12,0,44.3,7.61,60.22,25.26Z"/><path class="cls-1" d="M2119,356.47c2.76,24.57,21.45,39.45,44.64,39.45,20.77,0,34.26-9.69,44.64-22.49l29.77,22.49c-19.38,23.88-43.95,33.23-70.26,33.23-50.18,0-90.33-35-90.33-87.22s40.15-87.21,90.33-87.21c46.38,0,77.87,32.53,77.87,90.33v11.42Zm85.13-31.15c-.34-24.22-16.26-39.45-42.22-39.45-24.57,0-39.8,15.57-42.91,39.45Z"/><path class="cls-1" d="M2377.46,304.77c-8-11.08-18.34-17-32.53-17-11.08,0-24.23,5.19-24.23,17.65,0,29.76,89.64,5.54,89.64,70.26,0,39.45-37.72,53.29-71.64,53.29-25.61,0-47.76-6.57-64.72-25.61l27.69-26c10.73,11.77,21.8,20.42,39.45,20.42,12.11,0,27.69-5.88,27.69-19,0-34.26-89.64-7.27-89.64-70.6,0-37,33.23-53.64,66.8-53.64,22.15,0,45.68,6.92,59.18,25.26Z"/></g></g></svg>
